<svg xmlns="http://www.w3.org/2000/svg" xmlns:xlink="http://www.w3.org/1999/xlink" width="500" zoomAndPan="magnify" viewBox="0 0 375 374.999991" height="500" preserveAspectRatio="xMidYMid meet" version="1.2"><defs/><g id="3194eac0ac"><g style="fill:#000000;fill-opacity:1;"><g transform="translate(26.73445, 275.371216)"><path style="stroke:none" d="M 328.15625 -187.90625 C 328.757812 -187.0625 328.726562 -186.335938 328.0625 -185.734375 C 327.40625 -185.140625 326.71875 -185.265625 326 -186.109375 C 319.644531 -193.773438 312.601562 -198.476562 304.875 -200.21875 C 297.144531 -201.957031 289.050781 -201.238281 280.59375 -198.0625 C 272.144531 -194.882812 263.546875 -189.757812 254.796875 -182.6875 C 264.140625 -176.570312 271.390625 -169.257812 276.546875 -160.75 C 281.703125 -152.238281 283.984375 -142.769531 283.390625 -132.34375 C 282.785156 -123.945312 280.203125 -116.660156 275.640625 -110.484375 C 271.085938 -104.316406 265.394531 -99.132812 258.5625 -94.9375 C 251.738281 -90.738281 244.457031 -87.410156 236.71875 -84.953125 C 228.988281 -82.503906 221.648438 -80.800781 214.703125 -79.84375 C 219.847656 -76.957031 224.039062 -73 227.28125 -67.96875 C 230.519531 -62.9375 232.316406 -57.332031 232.671875 -51.15625 C 233.035156 -44.976562 231.421875 -38.65625 227.828125 -32.1875 C 226.265625 -29.1875 224.101562 -25.378906 221.34375 -20.765625 C 218.59375 -16.148438 215.835938 -11.503906 213.078125 -6.828125 C 210.316406 -2.148438 207.976562 1.742188 206.0625 4.859375 C 204.863281 6.890625 204.320312 9.046875 204.4375 11.328125 C 204.5625 13.609375 205.519531 15.46875 207.3125 16.90625 C 209.113281 18.34375 211.898438 18.96875 215.671875 18.78125 C 219.453125 18.601562 224.335938 17.132812 230.328125 14.375 C 236.328125 11.625 243.523438 7.132812 251.921875 0.90625 C 253.472656 -0.300781 254.519531 -0.457031 255.0625 0.4375 C 255.601562 1.34375 255.210938 2.273438 253.890625 3.234375 C 243.460938 11.503906 234.320312 17.140625 226.46875 20.140625 C 218.625 23.140625 212.03125 24.304688 206.6875 23.640625 C 201.351562 22.984375 197.304688 21.097656 194.546875 17.984375 C 191.796875 14.867188 190.328125 11.179688 190.140625 6.921875 C 189.960938 2.671875 191.015625 -1.429688 193.296875 -5.390625 C 195.453125 -9.109375 198.390625 -14.171875 202.109375 -20.578125 C 205.828125 -26.992188 209.722656 -33.5 213.796875 -40.09375 C 216.671875 -44.65625 218.585938 -49.539062 219.546875 -54.75 C 220.503906 -59.96875 220.054688 -64.789062 218.203125 -69.21875 C 216.347656 -73.65625 212.421875 -76.894531 206.421875 -78.9375 C 200.546875 -78.570312 195.71875 -78.71875 191.9375 -79.375 C 188.164062 -80.039062 186.222656 -81.035156 186.109375 -82.359375 C 186.109375 -84.515625 187.304688 -85.953125 189.703125 -86.671875 C 192.097656 -87.390625 194.941406 -87.414062 198.234375 -86.75 C 201.535156 -86.09375 204.382812 -84.867188 206.78125 -83.078125 C 206.78125 -83.078125 208.097656 -83.195312 210.734375 -83.4375 C 213.378906 -83.675781 216.796875 -84.300781 220.984375 -85.3125 C 225.179688 -86.332031 229.675781 -87.953125 234.46875 -90.171875 C 239.269531 -92.390625 243.859375 -95.414062 248.234375 -99.25 C 252.609375 -103.09375 256.265625 -107.945312 259.203125 -113.8125 C 262.140625 -119.6875 263.785156 -126.882812 264.140625 -135.40625 C 264.503906 -143.4375 263.15625 -150.863281 260.09375 -157.6875 C 257.039062 -164.519531 252.632812 -170.578125 246.875 -175.859375 C 236.445312 -166.023438 226.226562 -154.035156 216.21875 -139.890625 C 206.207031 -125.742188 197.007812 -110.398438 188.625 -93.859375 C 183.351562 -83.429688 177.117188 -72.972656 169.921875 -62.484375 C 162.734375 -51.992188 154.851562 -41.984375 146.28125 -32.453125 C 137.707031 -22.921875 128.6875 -14.257812 119.21875 -6.46875 C 109.75 1.320312 100.007812 7.765625 90 12.859375 C 79.988281 17.953125 69.945312 21.21875 59.875 22.65625 C 50.644531 24.09375 42.613281 24.210938 35.78125 23.015625 C 28.945312 21.816406 23.28125 19.804688 18.78125 16.984375 C 14.289062 14.171875 10.875 10.96875 8.53125 7.375 C 6.195312 3.78125 4.789062 0.1875 4.3125 -3.40625 C 3.832031 -7.007812 4.253906 -10.128906 5.578125 -12.765625 C 6.773438 -15.160156 8.390625 -16.6875 10.421875 -17.34375 C 12.460938 -18.007812 14.441406 -17.953125 16.359375 -17.171875 C 18.273438 -16.390625 19.679688 -15.066406 20.578125 -13.203125 C 21.484375 -11.347656 21.394531 -9.164062 20.3125 -6.65625 C 19.238281 -4.132812 17.863281 -2.570312 16.1875 -1.96875 C 14.507812 -1.375 12.976562 -1.195312 11.59375 -1.4375 C 10.21875 -1.675781 9.53125 -1.796875 9.53125 -1.796875 C 9.40625 -0.472656 10.242188 1.59375 12.046875 4.40625 C 13.847656 7.21875 16.664062 10.003906 20.5 12.765625 C 24.332031 15.523438 29.332031 17.59375 35.5 18.96875 C 41.675781 20.34375 49.144531 20.253906 57.90625 18.703125 C 67.488281 16.898438 76.6875 12.878906 85.5 6.640625 C 94.3125 0.410156 102.789062 -7.40625 110.9375 -16.8125 C 119.09375 -26.21875 127.066406 -36.582031 134.859375 -47.90625 C 142.648438 -59.238281 150.378906 -70.925781 158.046875 -82.96875 C 165.722656 -95.019531 173.519531 -106.679688 181.4375 -117.953125 C 191.5 -132.460938 201.445312 -144.960938 211.28125 -155.453125 C 221.113281 -165.941406 230.582031 -174.660156 239.6875 -181.609375 C 231.539062 -187.359375 221.832031 -191.734375 210.5625 -194.734375 C 199.289062 -197.734375 187.0625 -199.082031 173.875 -198.78125 C 160.6875 -198.476562 147.109375 -196.257812 133.140625 -192.125 C 119.179688 -187.988281 105.335938 -181.753906 91.609375 -173.421875 C 77.890625 -165.097656 64.914062 -154.34375 52.6875 -141.15625 C 40.21875 -127.84375 31.164062 -115.582031 25.53125 -104.375 C 19.894531 -93.164062 16.988281 -83.273438 16.8125 -74.703125 C 16.632812 -66.140625 18.582031 -59.070312 22.65625 -53.5 C 26.726562 -47.925781 32.300781 -44.054688 39.375 -41.890625 C 46.445312 -39.734375 54.390625 -39.492188 63.203125 -41.171875 C 72.015625 -42.847656 81.066406 -46.59375 90.359375 -52.40625 C 99.648438 -58.226562 108.550781 -66.410156 117.0625 -76.953125 C 125.8125 -87.742188 131.800781 -97.332031 135.03125 -105.71875 C 138.269531 -114.113281 139.5625 -121.28125 138.90625 -127.21875 C 138.25 -133.15625 136.453125 -137.738281 133.515625 -140.96875 C 130.578125 -144.207031 127.3125 -146.128906 123.71875 -146.734375 C 120.476562 -147.210938 117.65625 -147.085938 115.25 -146.359375 C 112.851562 -145.640625 110.992188 -144.832031 109.671875 -143.9375 C 108.359375 -143.039062 107.703125 -142.59375 107.703125 -142.59375 C 110.335938 -143.550781 112.675781 -143.367188 114.71875 -142.046875 C 116.757812 -140.734375 118.046875 -138.90625 118.578125 -136.5625 C 119.117188 -134.226562 118.429688 -131.921875 116.515625 -129.640625 C 114.722656 -127.484375 112.503906 -126.613281 109.859375 -127.03125 C 107.222656 -127.457031 105.128906 -128.507812 103.578125 -130.1875 C 102.492188 -131.382812 101.890625 -133.148438 101.765625 -135.484375 C 101.648438 -137.828125 102.25 -140.226562 103.5625 -142.6875 C 104.882812 -145.144531 107.070312 -147.179688 110.125 -148.796875 C 113.1875 -150.410156 117.414062 -151.097656 122.8125 -150.859375 C 125.925781 -150.742188 129.070312 -149.722656 132.25 -147.796875 C 135.425781 -145.878906 138.09375 -143.03125 140.25 -139.25 C 142.40625 -135.476562 143.601562 -130.804688 143.84375 -125.234375 C 144.082031 -119.660156 142.882812 -113.1875 140.25 -105.8125 C 137.613281 -98.445312 133 -90.148438 126.40625 -80.921875 C 118.132812 -69.285156 109.144531 -59.988281 99.4375 -53.03125 C 89.726562 -46.082031 79.988281 -41.320312 70.21875 -38.75 C 60.445312 -36.175781 51.1875 -35.457031 42.4375 -36.59375 C 33.6875 -37.726562 25.984375 -40.484375 19.328125 -44.859375 C 12.671875 -49.234375 7.601562 -55.046875 4.125 -62.296875 C 0.65625 -69.554688 -0.660156 -77.953125 0.171875 -87.484375 C 1.015625 -97.015625 4.671875 -107.410156 11.140625 -118.671875 C 19.535156 -133.535156 29.753906 -146.332031 41.796875 -157.0625 C 53.847656 -167.789062 66.945312 -176.570312 81.09375 -183.40625 C 95.238281 -190.238281 109.894531 -195.332031 125.0625 -198.6875 C 140.226562 -202.050781 155.210938 -203.757812 170.015625 -203.8125 C 184.816406 -203.875 198.835938 -202.46875 212.078125 -199.59375 C 225.328125 -196.71875 237.109375 -192.519531 247.421875 -187 C 259.648438 -195.15625 270.976562 -200.367188 281.40625 -202.640625 C 291.832031 -204.921875 301.0625 -204.710938 309.09375 -202.015625 C 317.125 -199.316406 323.476562 -194.613281 328.15625 -187.90625 Z M 328.15625 -187.90625 "/></g></g></g></svg>